<svg width="24" height="24" viewBox="0 0 24 24" fill="none" xmlns="http://www.w3.org/2000/svg">
  <path d="M5.042 15.165C5.042 16.173 4.25 16.965 3.242 16.965C2.234 16.965 1.442 16.173 1.442 15.165C1.442 14.157 2.234 13.365 3.242 13.365H5.042V15.165Z" fill="#E01E5A"/>
  <path d="M6.325 15.165C6.325 14.157 7.117 13.365 8.125 13.365C9.133 13.365 9.925 14.157 9.925 15.165V20.625C9.925 21.633 9.133 22.425 8.125 22.425C7.117 22.425 6.325 21.633 6.325 20.625V15.165Z" fill="#E01E5A"/>
  <path d="M8.125 5.042C7.117 5.042 6.325 4.25 6.325 3.242C6.325 2.234 7.117 1.442 8.125 1.442C9.133 1.442 9.925 2.234 9.925 3.242V5.042H8.125Z" fill="#36C5F0"/>
  <path d="M8.125 6.325C9.133 6.325 9.925 7.117 9.925 8.125C9.925 9.133 9.133 9.925 8.125 9.925H3.242C2.234 9.925 1.442 9.133 1.442 8.125C1.442 7.117 2.234 6.325 3.242 6.325H8.125Z" fill="#36C5F0"/>
  <path d="M18.958 8.125C18.958 7.117 19.75 6.325 20.758 6.325C21.766 6.325 22.558 7.117 22.558 8.125C22.558 9.133 21.766 9.925 20.758 9.925H18.958V8.125Z" fill="#2EB67D"/>
  <path d="M17.675 8.125C17.675 9.133 16.883 9.925 15.875 9.925C14.867 9.925 14.075 9.133 14.075 8.125V3.242C14.075 2.234 14.867 1.442 15.875 1.442C16.883 1.442 17.675 2.234 17.675 3.242V8.125Z" fill="#2EB67D"/>
  <path d="M15.875 18.958C16.883 18.958 17.675 19.75 17.675 20.758C17.675 21.766 16.883 22.558 15.875 22.558C14.867 22.558 14.075 21.766 14.075 20.758V18.958H15.875Z" fill="#ECB22E"/>
  <path d="M15.875 17.675C14.867 17.675 14.075 16.883 14.075 15.875C14.075 14.867 14.867 14.075 15.875 14.075H20.758C21.766 14.075 22.558 14.867 22.558 15.875C22.558 16.883 21.766 17.675 20.758 17.675H15.875Z" fill="#ECB22E"/>
</svg>

